<svg width="20" height="20" viewBox="0 0 20 20" fill="none" xmlns="http://www.w3.org/2000/svg">
<path d="M9.99753 1.25C6.9656 1.25 4.23149 3.07492 3.07126 5.87158C1.93557 8.60895 2.54142 11.7497 4.5776 13.8892C4.60888 13.9445 4.6484 13.9947 4.69479 14.0381L9.02096 18.3472C9.55739 18.8832 10.4425 18.8833 10.979 18.3472L15.2905 14.0503C15.2954 14.0463 15.3003 14.0422 15.3051 14.0381C15.306 14.0365 15.3068 14.0348 15.3076 14.0332C15.3306 14.0105 15.3518 13.986 15.3711 13.96C15.3761 13.9535 15.381 13.947 15.3857 13.9404C17.4604 11.8002 18.0709 8.63049 16.9262 5.87158C16.3461 4.47325 15.3734 3.32082 14.165 2.51465C12.9566 1.70852 11.5135 1.25 9.99753 1.25ZM9.99753 2.5C12.5263 2.5 14.8037 4.01512 15.7715 6.34766C16.7391 8.68019 16.207 11.3617 14.4189 13.147C14.4043 13.1617 14.3905 13.1772 14.3774 13.1934L10.1001 17.4609C10.0389 17.5219 9.96831 17.5219 9.90719 17.4609L5.69088 13.2642C5.69007 13.2633 5.68926 13.2625 5.68844 13.2617C5.65789 13.2218 5.62265 13.1858 5.58346 13.1543C3.79538 11.369 3.25831 8.68024 4.22604 6.34766C5.19377 4.01512 7.46877 2.5 9.99753 2.5ZM10.0171 5.01465C7.94801 5.01465 6.26217 6.70085 6.26217 8.76953C6.26217 10.8382 7.94801 12.5244 10.0171 12.5244C12.0861 12.5244 13.7817 10.8382 13.7817 8.76953C13.7817 6.70085 12.0861 5.01465 10.0171 5.01465ZM10.0171 6.25977C11.4097 6.25977 12.5268 7.37772 12.5268 8.76953C12.5268 10.1613 11.4097 11.2793 10.0171 11.2793C8.62438 11.2793 7.51706 10.1613 7.51706 8.76953C7.51706 7.37772 8.62438 6.25977 10.0171 6.25977Z" fill="#F16EAF"/>
</svg>
